<svg width="360" height="120" viewBox="0 0 360 120" fill="none" xmlns="http://www.w3.org/2000/svg">
<path d="M55.3846 108.492C82.2606 108.492 104.048 86.7045 104.048 59.8282C104.048 32.952 82.2606 11.1646 55.3846 11.1646C28.5086 11.1646 6.72131 32.952 6.72131 59.8282C6.72131 86.7045 28.5086 108.492 55.3846 108.492Z" fill="url(#paint0_linear_1679_40)"/>
<path d="M55.3193 111.269C83.8361 111.269 106.954 88.1516 106.954 59.6344C106.954 31.1175 83.8361 8 55.3193 8C26.8023 8 3.68481 31.1175 3.68481 59.6344C3.68481 88.1516 26.8023 111.269 55.3193 111.269Z" stroke="#F7B636" stroke-width="6.32967"/>
<path d="M24.8812 54.7878C24.7961 54.3407 24.4935 53.5598 23.9119 54.012C21.7088 55.7253 20.616 57.5665 19.388 60.2807C18.7193 61.7587 19.7758 64.9338 19.0003 64.4168C18.6426 64.1786 18.5119 63.9444 18.2894 63.5769C17.6599 62.5369 18.4094 61.6297 18.0309 60.4746C17.4711 58.7668 17.0613 58.006 15.252 56.9201C14.9288 56.7262 14.6381 57.415 14.541 57.7603C13.9593 59.8286 13.2301 61.1788 13.9594 63.3182C14.9288 66.1618 15.6397 67.9068 18.0309 69.5869C18.5776 69.9711 19.0889 69.6665 19.7111 69.9101C21.5443 70.6282 21.4561 73.5936 22.6839 73.9817C23.1097 74.1158 23.7535 73.4773 23.4594 73.1414C22.5547 72.1073 21.57 70.1499 21.6499 68.0358C21.7667 64.9457 24.5018 63.7075 24.8812 60.4746C25.146 58.2188 25.1398 56.1447 24.8812 54.7878Z" fill="#F7B636"/>
<path d="M51.2533 21.6999C51.5013 21.2722 51.6861 21.1507 51.0678 20.9751C50.4494 20.7994 42.8902 20.8213 40.9094 22.8621C39.078 24.7489 38.143 25.8961 37.914 26.2235C37.8844 26.2657 37.8602 26.3102 37.8403 26.3577C37.7876 26.4832 37.6923 26.7495 37.7425 26.9336C38.0052 27.6386 40.9739 26.3519 44.3991 26.3519C47.8242 26.3519 51.0053 22.1276 51.2533 21.6999Z" fill="#F7B636"/>
<path d="M18.5474 73.4646C18.1596 73.4646 17.7507 73.4025 17.8521 74.151C17.9062 74.5502 18.274 78.02 19.7108 80.4443C20.9664 82.5627 23.0067 85.1484 24.493 85.2267C25.9793 85.3047 28.3707 84.7742 28.823 84.7097C29.2754 84.6448 30.5909 84.8992 30.8265 84.7097C31.462 84.0953 28.2351 82.5805 26.6257 78.8931C25.8922 77.2126 24.3862 75.3928 22.7481 74.5632C20.792 73.5726 18.9351 73.4646 18.5474 73.4646Z" fill="#F7B636"/>
<path d="M35.7307 78.9422C35.3896 78.9014 35.0363 78.8037 35.0467 79.4727C35.0521 79.8295 35.0096 82.9216 36.018 85.2058C36.8992 87.202 38.0113 89.0075 39.3107 89.2334C40.61 89.4589 43.3642 88.7164 44.5276 88.9102C45.6911 89.1041 45.593 88.7935 45.8201 88.6519C46.444 88.1783 43.5513 87.4129 42.5243 83.9988C42.0563 82.4425 40.3236 81.6699 38.9698 80.7675C37.3533 79.6895 36.0719 78.9833 35.7307 78.9422Z" fill="#F7B636"/>
<path d="M38.5169 93.7568C38.2751 93.5902 37.7512 93.3402 38.1291 92.9169C38.3309 92.6906 40.4142 90.4641 42.3301 89.5681C43.9453 88.9098 46.0135 89.2979 46.7244 90.0088C47.4353 90.7197 49.8913 91.3012 50.9254 91.8183C51.6327 92.172 51.6746 92.5862 51.5271 92.9572C51.3934 93.2935 51.0278 93.4893 50.7715 93.2338C50.506 92.9687 50.1816 92.5656 49.568 92.5937C48.3338 92.6499 46.7842 93.5099 45.3671 94.4032C44.2029 95.137 42.7838 94.9954 41.4135 94.8091C39.7768 94.5867 38.7587 93.9237 38.5169 93.7568Z" fill="#F7B636"/>
<path d="M26.8351 88.1716C26.6782 87.9169 26.4693 87.6716 27.0357 87.456C27.3379 87.3409 30.4825 86.1671 32.7659 86.1956C34.7615 86.2205 35.2862 87.0358 36.1264 87.8757C36.9665 88.716 38.0015 89.8047 38.5821 90.6548C39.1628 91.505 38.3237 91.8052 38.0652 91.8828C37.4189 92.0766 34.9632 92.5937 33.2829 92.4643C31.6026 92.335 30.4393 91.2364 29.2761 90.2671C27.8801 89.1037 26.9919 88.426 26.8351 88.1716Z" fill="#F7B636"/>
<path d="M48.7286 27.7093C49.197 27.9384 49.5178 28.1486 49.2385 28.674C48.9592 29.1995 44.2697 33.0732 41.1029 33.0732C38.3788 33.0732 37.3558 32.3413 36.9761 32.067C36.8858 32.0017 36.7913 31.943 36.704 31.8736C36.5588 31.7584 36.3358 31.5638 36.249 31.3947C35.9168 30.6148 37.1607 29.4935 39.6811 27.9228C42.2015 26.3521 48.2606 27.4801 48.7286 27.7093Z" fill="#F7B636"/>
<path d="M25.5284 33.0088C25.3096 32.5929 24.8173 32.4106 24.3518 32.7304C23.8864 33.0501 19.9236 37.7837 20.5521 40.3116C21.1362 42.6612 21.6169 44.3325 21.7661 44.7214C21.7834 44.7665 21.8065 44.808 21.834 44.8479C21.9082 44.9556 22.076 45.1759 22.2529 45.2487C22.9639 45.4766 23.6544 44.0599 25.076 41.6041C26.4976 39.1483 25.7473 33.4247 25.5284 33.0088Z" fill="#F7B636"/>
<path d="M32.9329 40.4529C32.998 39.9875 32.831 39.4065 31.9909 39.4065C31.5589 39.4065 29.7494 39.5194 27.7255 40.699C25.8134 41.8135 24.2356 43.6072 23.331 44.9644C22.4263 46.3213 23.0609 47.6098 23.0263 47.8377C22.9917 48.0656 23.5826 49.3999 23.7186 49.6175C24.1628 50.2177 26.4504 47.6854 29.1473 46.1924C31.8441 44.6994 32.8679 40.9184 32.9329 40.4529Z" fill="#F7B636"/>
<path d="M30.0532 29.9065C30.5443 28.791 32.1595 26.4685 34.9647 25.6081C35.6612 25.3944 36.6474 25.3975 36.8567 25.6081C37.0661 25.8186 35.5058 31.8927 35.338 32.1183C35.1032 32.6608 33.781 35.8548 32.4438 35.6583C31.8162 35.566 30.5196 35.4776 29.669 36.3691C28.7073 37.377 27.9194 38.7603 27.6555 39.1712C27.4083 39.4908 27.0793 39.0188 26.9505 38.8249C26.6915 38.4371 26.8569 37.0421 28.05 35.9814C29.2131 34.9473 29.8773 33.4862 29.669 32.3623C29.5659 31.8062 29.5621 31.022 30.0532 29.9065Z" fill="#F7B636"/>
<path d="M16.3668 49.7882C16.1751 48.5844 15.9458 43.9115 17.8372 41.6685C18.3068 41.1115 18.9361 41.0869 19.065 41.1515C19.1938 41.2162 20.1609 42.6134 20.8095 44.3182C21.5684 46.3128 22.0171 48.6322 22.0069 48.7834C22.1035 49.3665 22.7229 52.7675 21.4927 53.3269C20.9152 53.5892 20.5891 54.7408 20.3573 55.9509C20.0951 57.3189 19.6462 58.859 19.5457 59.3116C19.5111 59.7139 18.9253 59.6114 18.7121 59.5181C18.2843 59.3325 18.5719 58.135 19 56.5973C19.4172 55.098 18.6854 53.3573 17.9013 52.5258C17.5134 52.1143 16.5584 50.9916 16.3668 49.7882Z" fill="#F7B636"/>
<path d="M28.1767 69.458C28.4379 68.3685 28.7888 64.4049 27.3367 61.4442C27.0115 60.7812 26.6767 60.6376 26.5488 60.6736C26.421 60.7096 25.0834 62.3948 24.3638 63.6414C23.5951 64.973 22.8128 67.1172 22.8128 67.2604C22.51 68.1813 22.2312 69.8457 23.2006 71.5907C24.17 73.3353 24.0541 73.2787 24.5577 74.3049C25.0309 75.2686 25.5271 76.1789 25.9149 76.6959C26.069 76.9013 26.2926 76.8202 26.4741 76.6789C26.6914 76.51 26.7907 76.2232 26.7023 75.9625C26.566 75.5602 26.2193 75.1408 25.9795 74.7571C25.1748 73.4694 26.3027 72.8831 26.6904 72.4305C27.0194 72.0468 27.9156 70.5475 28.1767 69.458Z" fill="#F7B636"/>
<path d="M32.9698 78.7562C32.9249 77.6367 32.185 73.7273 29.9826 71.273C29.4894 70.7235 29.1281 70.6764 29.0149 70.7456C28.9016 70.8149 28.0727 72.8004 27.7191 74.1957C27.3414 75.6863 27.1715 77.9623 27.2105 78.1003C27.1695 79.0688 27.7388 80.5151 29.1462 81.9306C30.5535 83.346 30.6626 83.227 31.2142 84.1922C31.7312 85.0974 31.6666 85.0974 31.9898 85.5496C32.1305 85.7466 32.3345 85.7125 32.4983 85.6057C32.7288 85.4554 32.7504 85.1476 32.6777 84.8822C32.6112 84.6401 32.5226 84.4502 32.3775 84.0633C32.1836 83.5462 32.0627 82.7024 32.3129 82.1616C32.5251 81.7027 33.0146 79.8758 32.9698 78.7562Z" fill="#F7B636"/>
<path d="M53.0589 93.3051C52.865 93.1109 51.8309 93.628 52.348 93.9512C52.6914 94.1656 56.484 96.4071 59.0044 98.0872C60.2969 98.9492 61.4975 99.3433 61.848 99.38C62.89 99.4892 64.1817 98.0172 63.5926 97.5057C63.3252 97.2735 61.8223 97.2375 60.2969 96.8593C58.4624 96.4047 56.6502 95.5668 56.8717 95.3085C57.0933 95.0498 57.7765 94.5327 57.9058 94.3389C58.0348 94.145 57.9058 93.8222 57.4533 93.7573C57.0011 93.6928 56.1731 94.6486 55.2561 94.5976C54.1927 94.5386 53.2527 93.499 53.0589 93.3051Z" fill="#F7B636"/>
<path d="M54.1567 95.6961C53.3481 95.8579 47.7977 97.2694 46.7893 97.4411C45.7813 97.6124 47.759 99.8966 48.922 99.5089C50.6655 98.9278 53.6653 96.8592 54.286 96.5364C54.9071 96.2132 54.4799 95.6316 54.1567 95.6961Z" fill="#F7B636"/>
<path d="M85.341 54.7878C85.426 54.3407 85.7287 53.5598 86.3106 54.012C88.5133 55.7257 89.6064 57.5665 90.8343 60.2807C91.5029 61.7591 90.4466 64.9338 91.222 64.4168C91.5796 64.1786 91.7102 63.9444 91.9329 63.5769C92.5623 62.5369 91.8127 61.6297 92.1912 60.4746C92.751 58.7668 93.1609 58.006 94.9704 56.9205C95.2936 56.7266 95.5843 57.415 95.6813 57.7603C96.2628 59.8286 96.9923 61.1788 96.2628 63.3182C95.2936 66.1618 94.5827 67.9068 92.1912 69.5869C91.6445 69.9711 91.1334 69.6664 90.5111 69.9101C88.6779 70.6282 88.7661 73.594 87.5382 73.9817C87.1125 74.1162 86.4688 73.4777 86.7628 73.1414C87.6675 72.1073 88.6522 70.1499 88.5723 68.0362C88.4556 64.9461 85.7203 63.7075 85.341 60.4746C85.0763 58.2188 85.0826 56.1447 85.341 54.7878Z" fill="#F7B636"/>
<path d="M58.9688 21.6999C58.7208 21.2722 58.536 21.1507 59.1544 20.9751C59.7727 20.7994 67.3323 20.8213 69.3131 22.8621C71.1443 24.7489 72.0791 25.8961 72.3082 26.2235C72.3379 26.2657 72.362 26.3102 72.3822 26.3577C72.4348 26.4832 72.5301 26.7495 72.4799 26.9336C72.2172 27.6386 69.2486 26.3519 65.8235 26.3519C62.3979 26.3519 59.2169 22.1276 58.9688 21.6999Z" fill="#F7B636"/>
<path d="M91.6746 73.4646C92.0623 73.4646 92.4713 73.4025 92.3696 74.1506C92.3154 74.5498 91.9479 78.02 90.5111 80.4443C89.2554 82.5627 87.2153 85.1484 85.729 85.2263C84.2427 85.3047 81.8513 84.7742 81.3987 84.7093C80.9466 84.6448 79.6308 84.8992 79.3954 84.7093C78.7601 84.0953 81.9866 82.5806 83.5963 78.8931C84.3298 77.2126 85.8358 75.3928 87.4736 74.5632C89.4299 73.5726 91.2869 73.4646 91.6746 73.4646Z" fill="#F7B636"/>
<path d="M74.4915 78.9422C74.8325 78.9014 75.1858 78.8037 75.1755 79.4727C75.17 79.8295 75.2127 82.9216 74.2043 85.2058C73.3229 87.202 72.2109 89.0075 70.9117 89.2334C69.6121 89.4589 66.8579 88.7164 65.6949 88.9102C64.5314 89.1041 64.6295 88.7935 64.402 88.6519C63.7782 88.1783 66.6712 87.4129 67.6982 83.9988C68.1662 82.4425 69.8989 81.6699 71.2527 80.7675C72.8691 79.6895 74.1505 78.9833 74.4915 78.9422Z" fill="#F7B636"/>
<path d="M71.7049 93.7571C71.9466 93.5902 72.4708 93.3405 72.0926 92.9169C71.8912 92.691 69.8075 90.4641 67.892 89.5685C66.2764 88.9102 64.2082 89.2979 63.4977 90.0088C62.7868 90.7197 60.3308 91.3012 59.2967 91.8183C58.5894 92.1719 58.5475 92.5861 58.695 92.9572C58.8287 93.2939 59.1943 93.4897 59.4502 93.2337C59.7157 92.9687 60.0405 92.566 60.654 92.594C61.8879 92.6502 63.4379 93.5103 64.8546 94.4035C66.0192 95.1374 67.4379 94.9958 68.8082 94.8094C70.4449 94.5867 71.4631 93.9237 71.7049 93.7571Z" fill="#F7B636"/>
<path d="M83.3879 88.1717C83.5445 87.9174 83.7534 87.6721 83.1873 87.4565C82.8851 87.3414 79.7404 86.1672 77.457 86.1961C75.4615 86.221 74.9366 87.0359 74.0963 87.8762C73.2565 88.7165 72.2212 89.8048 71.6408 90.6549C71.0601 91.5055 71.8991 91.8054 72.1575 91.8829C72.8039 92.0767 75.2598 92.5938 76.9399 92.4648C78.6205 92.3355 79.7835 91.2369 80.947 90.2672C82.3427 89.1042 83.2308 88.4265 83.3879 88.1717Z" fill="#F7B636"/>
<path d="M61.4931 27.7093C61.0247 27.9384 60.7039 28.1486 60.9832 28.674C61.2625 29.1995 65.9524 33.0732 69.1188 33.0732C71.8429 33.0732 72.866 32.3413 73.2457 32.0669C73.3359 32.0017 73.4305 31.943 73.5179 31.8736C73.6631 31.7584 73.8862 31.5638 73.9729 31.3947C74.3048 30.6148 73.061 29.4935 70.5406 27.9228C68.0202 26.3521 61.9615 27.4801 61.4931 27.7093Z" fill="#F7B636"/>
<path d="M84.6938 33.0086C84.9129 32.5927 85.4051 32.4104 85.8703 32.7301C86.3359 33.0499 90.2987 37.7835 89.6701 40.3113C89.0862 42.661 88.6055 44.3323 88.4564 44.7208C88.4389 44.7663 88.4156 44.8078 88.3883 44.8477C88.3139 44.9553 88.1462 45.1757 87.9694 45.2485C87.2585 45.4764 86.5677 44.0597 85.1463 41.6039C83.7245 39.148 84.475 33.4245 84.6938 33.0086Z" fill="#F7B636"/>
<path d="M77.2896 40.4529C77.2244 39.9875 77.3913 39.4065 78.2316 39.4065C78.6636 39.4065 80.4731 39.5195 82.497 40.699C84.4089 41.8135 85.987 43.6072 86.8914 44.9644C87.7961 46.3213 87.1616 47.6098 87.196 47.8377C87.2308 48.0656 86.6398 49.3999 86.5037 49.6175C86.0594 50.2177 83.772 47.6854 81.0752 46.1924C78.3783 44.6994 77.3545 40.9184 77.2896 40.4529Z" fill="#F7B636"/>
<path d="M80.1692 29.9065C79.6779 28.791 78.0627 26.4685 75.2578 25.608C74.5612 25.3944 73.5749 25.3975 73.3656 25.608C73.1564 25.8186 74.7166 31.8928 74.8844 32.1183C75.119 32.6608 76.4415 35.8547 77.7786 35.6582C78.406 35.566 79.7028 35.4775 80.5534 36.3691C81.5151 37.377 82.3027 38.7603 82.5666 39.1712C82.8143 39.4908 83.143 39.0188 83.272 38.8249C83.5307 38.4372 83.3653 37.0421 82.1722 35.9813C81.0091 34.9473 80.3449 33.4862 80.5534 32.3623C80.6562 31.8062 80.6602 31.022 80.1692 29.9065Z" fill="#F7B636"/>
<path d="M93.8556 49.7882C94.0474 48.5844 94.2765 43.9115 92.3851 41.6685C91.9155 41.1115 91.2861 41.0869 91.1575 41.1515C91.0286 41.2161 90.0613 42.6134 89.4129 44.3182C88.6538 46.3128 88.2052 48.6322 88.2154 48.7833C88.1189 49.3665 87.4994 52.7675 88.7297 53.3269C89.3073 53.5892 89.6333 54.7408 89.8651 55.9509C90.127 57.3189 90.576 58.859 90.6765 59.3116C90.7113 59.7143 91.2968 59.6114 91.51 59.5181C91.9381 59.3325 91.6505 58.135 91.2224 56.5973C90.8051 55.098 91.5369 53.3573 92.321 52.5258C92.7091 52.1143 93.6637 50.9916 93.8556 49.7882Z" fill="#F7B636"/>
<path d="M82.0455 69.4576C81.7841 68.3681 81.4332 64.4045 82.8854 61.4442C83.2106 60.7812 83.5453 60.6376 83.6735 60.6736C83.8012 60.7092 85.1388 62.3948 85.8584 63.6414C86.627 64.973 87.4092 67.1172 87.4092 67.2604C87.7122 68.1813 87.9911 69.8453 87.0215 71.5903C86.0522 73.3353 86.1681 73.2787 85.6645 74.3045C85.1914 75.2686 84.6949 76.1789 84.3072 76.6959C84.1529 76.9013 83.9294 76.8198 83.7478 76.6785C83.5306 76.5096 83.4314 76.2228 83.5196 75.9621C83.6561 75.5602 84.0026 75.1408 84.2427 74.7571C85.0474 73.4694 83.9195 72.8827 83.5318 72.4305C83.2027 72.0468 82.3066 70.5471 82.0455 69.4576Z" fill="#F7B636"/>
<path d="M77.2524 78.7562C77.2971 77.6371 78.0373 73.7273 80.2396 71.273C80.733 70.7235 81.0941 70.6764 81.2073 70.7456C81.3204 70.8149 82.1496 72.8008 82.5029 74.1957C82.8807 75.6863 83.0508 77.9623 83.0116 78.1003C83.0528 79.0688 82.4831 80.5151 81.0759 81.9306C79.6688 83.346 79.5596 83.227 79.0081 84.1926C78.4911 85.0974 78.5555 85.0974 78.2323 85.5496C78.0915 85.7466 77.8878 85.7125 77.724 85.6057C77.4933 85.4554 77.4716 85.1476 77.5444 84.8826C77.6108 84.6401 77.6995 84.4502 77.8446 84.0633C78.0385 83.5462 78.1596 82.7024 77.9091 82.1616C77.6971 81.7027 77.2073 79.8758 77.2524 78.7562Z" fill="#F7B636"/>
<path d="M173.268 38.16C173.268 44.0677 171.404 48.9046 167.675 52.6708C163.982 56.4001 159.201 58.2646 153.33 58.2646C150.708 58.2646 148.216 57.8401 145.853 56.9908C143.527 56.1414 141.422 54.9047 139.539 53.28C137.693 51.6553 136.216 49.5508 135.108 46.9662C134.038 44.3446 133.502 41.4092 133.502 38.16C133.502 33.8769 134.481 30.1846 136.438 27.0831C138.394 23.9446 140.85 21.6554 143.804 20.2154C146.795 18.7385 150.025 18 153.496 18C156.007 18 158.425 18.4431 160.751 19.3292C163.114 20.1785 165.219 21.4154 167.065 23.04C168.948 24.6646 170.444 26.7877 171.551 29.4092C172.696 31.9938 173.268 34.9108 173.268 38.16ZM143.638 38.16C143.638 41.4462 144.597 44.0308 146.518 45.9138C148.438 47.76 150.727 48.6831 153.385 48.6831C156.007 48.6831 158.277 47.76 160.198 45.9138C162.154 44.0308 163.133 41.4462 163.133 38.16C163.133 34.8738 162.173 32.3077 160.253 30.4615C158.333 28.5785 156.081 27.6369 153.496 27.6369C150.764 27.6369 148.438 28.56 146.518 30.4062C144.597 32.2154 143.638 34.8 143.638 38.16ZM189.659 18.7754V48.4615H203.671V57.5446H179.524V18.7754H189.659ZM218.618 31.6246H219.061L226.095 18.7754H236.839V20.2708L223.879 42.2031V57.5446H213.744V42.2031L200.729 20.2708V18.7754H211.584L218.618 31.6246ZM259.693 35.4462L275.034 18.6646H278.634V57.5446H268.499V39.6554L260.246 48.2954H259.083L250.831 39.6554V57.5446H240.696V18.6646H244.296L259.693 35.4462ZM297.13 57.4892H286.995V18.72H304.109C308.503 18.72 311.936 20.1785 314.41 23.0954C316.884 25.9754 318.084 29.3723 318.01 33.2862C318.01 37.1262 316.774 40.4492 314.299 43.2554C311.862 46.0615 308.466 47.4646 304.109 47.4646H297.13V57.4892ZM296.964 38.6585H304.109C305.364 38.6585 306.379 38.1046 307.155 36.9969C307.93 35.8523 308.318 34.5231 308.318 33.0092C308.318 31.5323 307.949 30.2585 307.21 29.1877C306.472 28.08 305.438 27.5262 304.109 27.5262H296.964V38.6585Z" fill="white"/>
<path d="M352.495 77.3023C351.613 76.5858 350.731 76.0622 349.849 75.7316C348.967 75.3733 348.113 75.1942 347.286 75.1942C346.239 75.1942 345.385 75.4422 344.724 75.9382C344.062 76.4343 343.732 77.0818 343.732 77.8809C343.732 78.4321 343.897 78.8867 344.228 79.245C344.558 79.6032 344.986 79.9201 345.509 80.1956C346.06 80.4437 346.666 80.6641 347.328 80.857C348.017 81.0499 348.692 81.2566 349.353 81.477C351.999 82.3588 353.927 83.5437 355.14 85.0317C356.38 86.4922 357 88.4073 357 90.7772C357 92.3754 356.724 93.8221 356.173 95.1172C355.65 96.4124 354.864 97.5284 353.817 98.4653C352.798 99.3746 351.53 100.077 350.015 100.573C348.526 101.097 346.832 101.359 344.93 101.359C340.99 101.359 337.339 100.188 333.977 97.8453L337.449 91.3145C338.661 92.3892 339.86 93.1883 341.045 93.7119C342.23 94.2354 343.401 94.4972 344.558 94.4972C345.881 94.4972 346.859 94.1941 347.493 93.5879C348.154 92.9816 348.485 92.2927 348.485 91.5212C348.485 91.0527 348.402 90.6532 348.237 90.3225C348.072 89.9643 347.796 89.6474 347.41 89.3718C347.025 89.0687 346.515 88.7931 345.881 88.5451C345.275 88.2971 344.531 88.0216 343.649 87.7184C342.602 87.3878 341.569 87.0295 340.549 86.6437C339.557 86.2304 338.661 85.6931 337.862 85.0317C337.091 84.3704 336.457 83.5437 335.961 82.5517C335.493 81.5321 335.258 80.2508 335.258 78.7076C335.258 77.1645 335.506 75.7729 336.002 74.5329C336.526 73.2653 337.242 72.1906 338.152 71.3088C339.089 70.3995 340.218 69.6968 341.541 69.2008C342.891 68.7048 344.393 68.4568 346.046 68.4568C347.59 68.4568 349.202 68.6772 350.883 69.1181C352.563 69.5315 354.175 70.1515 355.719 70.9782L352.495 77.3023Z" fill="#F7B636"/>
<path d="M314.179 83.2548H315.708C317.306 83.2548 318.532 82.9241 319.387 82.2627C320.241 81.6014 320.668 80.6507 320.668 79.4107C320.668 78.1707 320.241 77.22 319.387 76.5586C318.532 75.8973 317.306 75.5666 315.708 75.5666H314.179V83.2548ZM331.994 100.491H321.908L314.179 88.5042V100.491H306.077V69.3252H318.684C320.42 69.3252 321.936 69.587 323.231 70.1105C324.526 70.6065 325.587 71.2954 326.413 72.1772C327.268 73.059 327.901 74.0786 328.315 75.236C328.756 76.3933 328.976 77.6333 328.976 78.956C328.976 81.3258 328.398 83.2548 327.24 84.7428C326.11 86.2032 324.429 87.1953 322.197 87.7188L331.994 100.491Z" fill="#F7B636"/>
<path d="M300.236 76.1866H290.605V81.3947H299.699V88.2562H290.605V93.6296H300.236V100.491H282.504V69.3252H300.236V76.1866Z" fill="#F7B636"/>
<path d="M244.843 100.491V69.3252H252.944L267.907 88.3802V69.3252H275.968V100.491H267.907L252.944 81.4361V100.491H244.843Z" fill="#F7B636"/>
<path d="M234.584 76.1866V100.491H226.483V76.1866H219.828V69.3252H241.239V76.1866H234.584Z" fill="#F7B636"/>
<path d="M201.519 83.2548H203.048C204.647 83.2548 205.873 82.9241 206.727 82.2627C207.581 81.6014 208.009 80.6507 208.009 79.4107C208.009 78.1707 207.581 77.22 206.727 76.5586C205.873 75.8973 204.647 75.5666 203.048 75.5666H201.519V83.2548ZM219.334 100.491H209.249L201.519 88.5042V100.491H193.418V69.3252H206.024C207.761 69.3252 209.276 69.587 210.571 70.1105C211.866 70.6065 212.927 71.2954 213.754 72.1772C214.608 73.059 215.242 74.0786 215.655 75.236C216.096 76.3933 216.317 77.6333 216.317 78.956C216.317 81.3258 215.738 83.2548 214.581 84.7428C213.451 86.2032 211.77 87.1953 209.538 87.7188L219.334 100.491Z" fill="#F7B636"/>
<path d="M177.225 88.9175L173.587 78.5427L169.95 88.9175H177.225ZM179.374 95.0763H167.8L165.94 100.491H157.302L169.164 69.3252H178.01L189.873 100.491H181.234L179.374 95.0763Z" fill="#F7B636"/>
<path d="M142.101 83.6268H144.788C147.764 83.6268 149.252 82.3316 149.252 79.7414C149.252 77.1511 147.764 75.856 144.788 75.856H142.101V83.6268ZM142.101 100.491H134V69.3252H146.896C150.396 69.3252 153.069 70.2345 154.915 72.0532C156.789 73.8719 157.726 76.4346 157.726 79.7414C157.726 83.0481 156.789 85.6108 154.915 87.4295C153.069 89.2482 150.396 90.1575 146.896 90.1575H142.101V100.491Z" fill="#F7B636"/>
<defs>
<linearGradient id="paint0_linear_1679_40" x1="55.3846" y1="11.1648" x2="55.3846" y2="108.492" gradientUnits="userSpaceOnUse">
<stop stop-color="#1930AD"/>
<stop offset="1" stop-color="#131F60"/>
</linearGradient>
</defs>
</svg>
